<?xml version="1.0" encoding="utf-8"?>
<!-- Generator: Adobe Illustrator 18.1.1, SVG Export Plug-In . SVG Version: 6.00 Build 0)  -->
<svg version="1.1" id="Layer_1" xmlns="http://www.w3.org/2000/svg" xmlns:xlink="http://www.w3.org/1999/xlink" x="0px" y="0px"
	 viewBox="0 0 164 22.9" enable-background="new 0 0 164 22.9" xml:space="preserve">
<path fill="#FFFFFF" d="M155.6,0.5h-4.8l-8.4,21.8h5.3l1.9-4.9l9,4.9h0h5.3L155.6,0.5z M151.4,13l1.9-4.8l2.8,7.4L151.4,13z M0,22.4
	v-5h12.4v5H0z M38.4,21.5c1.6-0.9,2.9-2.2,3.9-3.9c1-1.7,1.5-3.5,1.5-5.5l0-1.4H32.2v4.9h5.6c-0.4,0.7-1,1.2-1.6,1.6
	c-0.8,0.5-1.9,0.8-3.1,0.8c-2,0-3.5-0.6-4.9-1.9c-1.3-1.3-2-2.8-2-4.7c0-1.8,0.6-3.3,1.9-4.5C29.4,5.6,30.9,5,32.8,5
	c2.2,0,4.1,0.9,5.7,2.6L38.9,8l3.6-3.6l-0.4-0.4c-1.3-1.4-2.7-2.4-4.1-3c-1.6-0.7-3.4-1-5.3-1c-3.6,0-6.6,1.3-8.8,3.8
	c-1.9,2.1-2.9,4.7-2.9,7.5c0,2.1,0.5,4.1,1.5,5.9c1,1.8,2.4,3.2,4.2,4.2c1.8,1,3.8,1.5,6,1.5C35,22.9,36.8,22.4,38.4,21.5z
	 M133.7,22.4V0.5h-5.1v12.2l-7.9-12.2H116v21.8h5.1V10.2l7.9,12.2H133.7z M76.2,22.4V5.6H80v-5H67.4v5h3.7v16.8H76.2z M58.1,22.4
	V0.5H53v21.8H58.1z M9.7,13.9V9H0v4.9H9.7z M12.4,5.5v-5H0v5H12.4z M98.9,0.5h-4.8l-8.4,21.8H91l1.9-4.9l9,4.9h0h5.3L98.9,0.5z
	 M94.6,13l1.9-4.8l2.8,7.4L94.6,13z"/>
</svg>
